<svg id="LogoAttempt3_Image" data-name="LogoAttempt3 Image" xmlns="http://www.w3.org/2000/svg" viewBox="0 0 128.53 68.45"><defs><style>.cls-1{fill:#262e3b;}.cls-2{fill:#f15161;}</style></defs><title>logo</title><path class="cls-1" d="M85.73,27v-.43c0-7.08,0-14.16,0-21.24,0-.75-.15-1-1-1q-12,0-24,0c-.78,0-1,.19-1,1,.07,1.24,0,2.48,0,3.72,0,.7-.21.89-.88.85-1.11-.07-2.57.35-3.24-.2s-.19-2.1-.21-3.2c0-1.88,0-3.76,0-5.64,0-.6.12-.82.78-.82q16.5,0,33,0c.77,0,.81.32.8.92,0,2.32,0,4.64,0,7q0,25.8,0,51.6c0,1.07-.26,1.41-1.3,1.27s-2.33.43-2.86-.21-.17-1.9-.18-2.89c0-1.72,0-3.44,0-5.35-.76.9-1.42,1.68-2.07,2.47a19.48,19.48,0,0,1-10.29,6.72,22.49,22.49,0,0,1-10,.3A19.7,19.7,0,0,1,54.82,58a22,22,0,0,1-8.21-12.6,21.42,21.42,0,0,1-.71-6.54,22.51,22.51,0,0,1,6-14.47A20.63,20.63,0,0,1,62.85,18c6.47-1.33,12.45-.37,17.73,3.87a24.4,24.4,0,0,1,4.62,4.87C85.3,26.85,85.41,27.06,85.73,27ZM68,57.86C77.92,58.05,85.4,49.7,85.71,41c.42-11.67-8-19.37-17.79-19.31A17.75,17.75,0,0,0,50.23,39.07C49.8,49.86,58.41,58.09,68,57.86Z"/><path class="cls-1" d="M33.65,61.41a26.56,26.56,0,0,1-10,5.86c-5.62,1.67-11.28,1.95-16.7-.75C1.76,63.94-.54,59.59.11,54a11.73,11.73,0,0,1,4.7-8,22.77,22.77,0,0,1,11.11-4.43A31.35,31.35,0,0,1,22,41.08a45,45,0,0,1,10.65,1.56c.73.22,1,.1,1-.71-.14-1.86.17-3.72-.22-5.58A7.07,7.07,0,0,0,30.55,32a15,15,0,0,0-6.92-2.46c-4-.59-7.67.49-11.42,1.42-1.88.47-3.68,1.18-5.57,1.61-.7.16-.85.1-.82-.57s0-1,0-1.56c0-2.26,0-2.31,2.21-2.92a68.1,68.1,0,0,1,11.9-2.31,20.24,20.24,0,0,1,11.63,2.25,11.05,11.05,0,0,1,6.22,8.67A24.83,24.83,0,0,1,38,39.16c0,7.92,0,15.84,0,23.76,0,1,.28,1.27,1.25,1.21,1.39-.09,2.8,0,4.2,0,.59,0,.88.1.83.77-.1,1.15.46,2.62-.21,3.36s-2.11.18-3.22.2c-2.12,0-4.24,0-6.36,0-.62,0-.82-.17-.8-.8C33.68,65.63,33.65,63.63,33.65,61.41Zm0-9.7c0-1.48,0-3,0-4.43,0-.47-.08-.63-.62-.73a49.37,49.37,0,0,0-13.81-1,28.17,28.17,0,0,0-7.28,1.5c-3,1.15-5.73,2.79-7.06,5.93a7.32,7.32,0,0,0,2.38,8.7c4,3,8.61,2.73,13.19,2,4-.63,7.4-2.63,10.65-4.91,1.67-1.17,3.08-2.45,2.57-4.82A11.09,11.09,0,0,1,33.65,51.71Z"/><path class="cls-1" d="M107.57,10.62c2.8,0,5.6,0,8.4-.06.8,0,1,.22,1,1,0,4.6,0,9.2,0,13.8,0,.93.27,1.11,1.13,1.09,3.12-.05,6.24,0,9.36,0,.8,0,1.16.12,1.07,1-.1,1.06.32,2.48-.22,3.11s-2,.18-3.09.2c-2.36,0-4.72.06-7.08,0-.93,0-1.18.22-1.17,1.17,0,11.76,0,23.52.05,35.28,0,1.07-.26,1.32-1.3,1.29-2.84-.08-5.68,0-8.52,0-.71,0-1.12-.07-1-.94.13-1.1-.46-2.57.24-3.21s2-.14,3.12-.19,2.38.45,3-.22.16-1.9.16-2.89q0-22.44,0-44.87c0-1-.21-1.31-1.23-1.24-1.35.09-2.72,0-4.07,0A7,7,0,0,0,107.57,10.62Z"/><path class="cls-1" d="M100.37,43.46c0-5.32,0-10.63,0-15.95,0-.89.2-1.2,1.11-1.11s2.41-.34,3,.19.22,2,.22,3.08c0,10,0,19.91,0,29.86,0,1-.22,1.34-1.23,1.23s-2.32.32-2.89-.18-.21-1.95-.21-3C100.36,52.89,100.37,48.17,100.37,43.46Z"/><path class="cls-2" d="M107.57,10.62a7,7,0,0,1-.24,4.24,6.58,6.58,0,0,1-3.07,2.46,5.14,5.14,0,0,1-6.71-4,5.29,5.29,0,0,1,4.15-5.91C104.62,6.94,106.27,8.36,107.57,10.62Z"/><path class="cls-1" d="M38.91,10.58c1.48,0,3,0,4.43,0,.65,0,1,.12.88.84-.12,1.14.48,2.62-.24,3.32-.56.55-2,.13-3.11.18s-2.38-.45-3,.21S37.74,17,37.74,18c0,2.41,0,2.41-2.39,2.41-1.93,0-1.93,0-1.93-1.92,0-2.35,0-4.71,0-7.06,0-.66.15-.9.85-.88C35.8,10.61,37.36,10.58,38.91,10.58Z"/></svg>