<svg id="LogoAttempt2_Image" data-name="LogoAttempt2 Image" xmlns="http://www.w3.org/2000/svg" viewBox="0 0 177.5 84.5"><defs><style>.cls-1{fill:#262e3b;}.cls-2{fill:#f15161;}</style></defs><title>LogoAttempt2</title><path class="cls-1" d="M122.6,17.7c2.8,0,5.6,0,8.4-.06.8,0,1,.22,1,1,0,4.6,0,9.2,0,13.8,0,.93.27,1.1,1.13,1.09,6.28,0,12.56,0,18.84,0a13.85,13.85,0,0,1,2.94.21A2,2,0,0,1,156.68,36a1.86,1.86,0,0,1-2.12,1.84c-7.08,0-14.16,0-21.24,0-1.21,0-1.39.34-1.39,1.45,0,8.4.09,16.8,0,25.2,0,2.74,2.65,6.13,5.25,7.14a19.43,19.43,0,0,0,8.57,1,34.5,34.5,0,0,0,11.51-2.73c1-.43,1.93-1,2.89-1.46a2.2,2.2,0,0,1,2.74.55,2.31,2.31,0,0,1-.36,2.79c-1.71,1.64-3.93,2.3-6.08,3.08a38.9,38.9,0,0,1-7.8,1.84,25.1,25.1,0,0,1-8.75.08,55.93,55.93,0,0,0-12.64-1.23c-9.4.14-18.8,0-28.2,0a2.17,2.17,0,0,1-2.36-2.69c.27-1,1.4-1.63,3.08-1.63,4.8,0,9.6,0,14.4,0,1,0,1.25-.21,1.24-1.22q-.06-15.48,0-31c0-1-.23-1.25-1.23-1.23q-5,.11-10,0c-.93,0-1.1.25-1.1,1.13,0,9.2,0,18.4,0,27.6,0,1-.1,1.48-1.25,1.33-1-.13-2.28.29-2.89-.21s-.17-1.87-.19-2.86c0-1.72,0-3.44,0-5.16,0,0,0,0-.11-.1-1,1.16-1.82,2.41-2.87,3.47a19.74,19.74,0,0,1-9.07,5.53A21.68,21.68,0,0,1,60.15,53.95,22.07,22.07,0,0,1,64,32.54a20.32,20.32,0,0,1,13.14-7.72,20.8,20.8,0,0,1,15.76,3.44,21,21,0,0,1,5.22,5.29,10.24,10.24,0,0,0,.71.79V33c0-6.84,0-13.68,0-20.52,0-.81-.15-1.07-1-1.07q-11.94.06-23.88,0c-.83,0-1.11.17-1.06,1,.08,1.27,0,2.56,0,3.84,0,.53-.16.69-.68.67-1,0-2,0-3,0-.55,0-.66-.2-.66-.7,0-2.8,0-5.6,0-8.4,0-.82.41-.76,1-.76h14c6.12,0,12.24,0,18.36,0,1,0,1.26.18,1.25,1.21,0,8,0,16.08,0,24.12V33.6c.39,0,.72-.09,1.05-.09h14.64c2.64,0,5.28,0,7.92,0,.65,0,.89-.14.88-.84q-.06-4.92,0-9.84c0-.67-.17-.89-.86-.87-1.48,0-3,0-4.43,0A7,7,0,0,0,122.6,17.7ZM81.07,64.94c10,.2,17.43-8.16,17.75-16.85.43-11.67-8-19.37-17.78-19.31a17.74,17.74,0,0,0-17.7,17.37C62.9,56.94,71.52,65.17,81.07,64.94Zm48.45,6.24a12.2,12.2,0,0,1-1.89-6.85c0-8.48,0-17,0-25.43,0-.91-.23-1.13-1.12-1.1-2,.07-3.92.07-5.88,0-.82,0-1,.26-1,1,0,5,0,10,0,15q0,8.22,0,16.44c0,.43-.21,1,.63,1C123.38,71.16,126.4,71.18,129.52,71.18Z"/><path class="cls-1" d="M46.76,68.94c-4.34,3.9-9,6.8-14.56,7.69-4.63.74-9.3.64-13.55-1.65-5.15-2.78-7.3-7-6.63-12.54.5-4.2,3-7.29,6.66-9.37a27.81,27.81,0,0,1,11.8-3.31,43.77,43.77,0,0,1,15.2,1.69,10.32,10.32,0,0,0,1.11.17c-.21-2.74.24-5.48-.26-8.22A6.82,6.82,0,0,0,43.64,39a15,15,0,0,0-6.93-2.45c-4-.58-7.67.5-11.42,1.42-1.84.45-3.59,1.22-5.48,1.54-1.25.21-2.13-.06-2.49-1a2.26,2.26,0,0,1,1.07-2.91,36.42,36.42,0,0,1,7.21-2.18,37.43,37.43,0,0,1,9.51-1.31c4.74.12,9.2,1.27,12.72,4.75a10.87,10.87,0,0,1,3.23,7.91c.06,8.4,0,16.8,0,25.2,0,1,.21,1.25,1.22,1.25,1.74,0,3.5-.32,5.21.19,1.42.43,1.68.87,1.5,2.57-.12,1.14-1,1.48-1.92,1.5-3.24.07-6.48,0-9.72,0-.62,0-.6-.33-.59-.76C46.76,72.89,46.76,71,46.76,68.94Zm0-9.1c0-1.24,0-2.48,0-3.72,0-.48,0-.68-.65-.83A61.28,61.28,0,0,0,35.3,53.92a29.39,29.39,0,0,0-6.6.46c-4,.63-7.73,1.85-10.55,5A7.47,7.47,0,0,0,19,70.12a11.45,11.45,0,0,0,6.43,2.46,23.43,23.43,0,0,0,12.79-2.29,41.44,41.44,0,0,0,7.94-5.53,1.74,1.74,0,0,0,.66-1.55C46.72,62.09,46.76,61,46.76,59.85Z"/><path class="cls-2" d="M122.6,17.7a7,7,0,0,1-.24,4.24,6.58,6.58,0,0,1-3.07,2.46,5.14,5.14,0,0,1-6.71-4,5.29,5.29,0,0,1,4.15-5.91C119.65,14,121.3,15.44,122.6,17.7Z"/><path class="cls-1" d="M52,17.66c1.52.14,3.34-.19,5.15.22,1.29.29,1.95.92,1.87,2.11a2.13,2.13,0,0,1-2.15,2c-1.72,0-3.44,0-5.15,0-.66,0-.9.15-.87.85.05,1.32,0,2.64,0,4,0,.57-.15.77-.73.74-1.15-.06-2.61.37-3.37-.19s-.2-2.08-.22-3.18c0-1.88,0-3.75,0-5.63,0-.68.19-.88.86-.86C48.8,17.69,50.24,17.66,52,17.66Z"/></svg>